<svg width="24" height="24" viewBox="0 0 24 24" fill="none" xmlns="http://www.w3.org/2000/svg">
<path d="M3.11877 17.9628L2.32109 17.3597L2.32109 17.3597L3.11877 17.9628ZM4.42712 14.2354L3.42712 14.2232V14.2354H4.42712ZM4.45458 11.9818L5.45458 11.994V11.9818H4.45458ZM20.8882 17.9809L21.6978 17.394L21.6978 17.3939L20.8882 17.9809ZM19.6291 14.2354L18.6291 14.2226V14.2354H19.6291ZM19.6566 12.0935L20.6566 12.1063V12.0935H19.6566ZM3.91645 18.5659C4.67079 17.5681 5.42712 16.0699 5.42712 14.2354H3.42712C3.42712 15.5115 2.89827 16.5963 2.32109 17.3597L3.91645 18.5659ZM5.42705 14.2476L5.45451 11.994L3.45466 11.9696L3.4272 14.2232L5.42705 14.2476ZM21.6978 17.3939C21.1452 16.6316 20.6291 15.5343 20.6291 14.2354H18.6291C18.6291 16.0685 19.3539 17.5683 20.0786 18.5679L21.6978 17.3939ZM20.629 14.2482L20.6565 12.1063L18.6566 12.0806L18.6292 14.2226L20.629 14.2482ZM20.6566 12.0935C20.6566 9.86769 20.2271 7.14869 18.9417 4.94893C17.6224 2.69111 15.4008 1 12 1V3C14.5992 3 16.2059 4.23124 17.2149 5.95796C18.2578 7.74274 18.6566 10.0705 18.6566 12.0935H20.6566ZM20.43 20.0254C21.1898 20.0254 21.6667 19.4898 21.859 19.0359C22.0507 18.5834 22.0897 17.9345 21.6978 17.394L20.0786 18.5679C19.9625 18.4078 20.0067 18.2811 20.0174 18.2557C20.0288 18.2289 20.1387 18.0254 20.43 18.0254V20.0254ZM5.45458 11.9818C5.45458 9.9821 5.82811 7.68255 6.84374 5.92001C7.82349 4.21971 9.39941 3 12 3V1C8.60059 1 6.4038 2.67764 5.11084 4.92147C3.85376 7.10305 3.45458 9.79439 3.45458 11.9818H5.45458ZM3.57109 18.0254C3.70569 18.0254 3.81669 18.0772 3.88642 18.1332C3.94916 18.1837 3.97456 18.2323 3.98443 18.2564C3.99471 18.2814 4.00238 18.3136 3.99933 18.3578C3.99613 18.4042 3.97867 18.4836 3.91645 18.5659L2.32109 17.3597C1.91184 17.9011 1.94716 18.5605 2.13451 19.0165C2.32215 19.4731 2.79869 20.0254 3.57109 20.0254V18.0254ZM20.43 18.0254H3.57109V20.0254H20.43V18.0254ZM14.7 19.0254C14.7 20.2772 13.5977 21.4004 12.1 21.4004V23.4004C14.5787 23.4004 16.7 21.5014 16.7 19.0254H14.7ZM12.1 21.4004C10.6023 21.4004 9.5 20.2772 9.5 19.0254H7.5C7.5 21.5014 9.62126 23.4004 12.1 23.4004V21.4004Z" fill="#252525"/>
</svg>
