<svg width="363" height="59" viewBox="0 0 363 59" fill="none" xmlns="http://www.w3.org/2000/svg">
<path d="M69.0099 8.60094V14.3509C72.8099 8.21094 79.1399 4.71094 85.2799 4.71094C87.6199 4.71094 90.8299 5.00094 92.5899 6.27094C93.4699 6.85094 94.2499 8.02094 94.2499 9.09094C94.2499 9.87094 94.1499 14.4509 90.3499 14.3509C89.6699 14.3509 88.5999 14.1509 87.4299 13.8609C86.1599 13.5709 84.8999 13.3709 83.8299 13.3709C83.7699 13.3709 83.7099 13.3709 83.6499 13.3709C75.5099 13.3209 69.0299 20.2309 69.0299 28.3609V54.7709C69.0299 57.0109 67.1799 58.2809 64.8399 58.2809C62.2099 58.2809 60.3599 57.0109 60.3599 54.7709V8.60094C60.3599 6.36094 62.2099 5.00094 64.8399 5.00094C67.1799 5.00094 69.0299 6.36094 69.0299 8.60094H69.0099Z" fill="#252525"/>
<path d="M142.84 27.2089C142.84 31.2989 141.57 33.4389 135.92 33.4389H105.62C106.01 44.8389 112.83 50.7789 121.79 50.7789C128.32 50.7789 132.7 49.0289 135.62 47.0789C139.52 44.4489 143.22 50.2989 139.52 53.2189C136.11 55.7489 129.88 58.2889 121.69 58.2889C106.69 58.2889 96.3599 48.1589 96.3599 30.7189C96.3599 13.2789 108.54 4.12891 120.42 4.12891C133.67 4.12891 142.82 13.7689 142.82 27.2189L142.84 27.2089ZM105.73 26.4289H134.37C134.08 16.7889 128.04 11.7189 120.24 11.7189C113.52 11.7189 106.8 16.5889 105.73 26.4289Z" fill="#252525"/>
<path d="M197.19 27.2089C197.19 31.2989 195.92 33.4389 190.27 33.4389H159.97C160.36 44.8389 167.18 50.7789 176.14 50.7789C182.67 50.7789 187.05 49.0289 189.97 47.0789C193.87 44.4489 197.57 50.2989 193.87 53.2189C190.46 55.7489 184.23 58.2889 176.04 58.2889C161.04 58.2889 150.71 48.1589 150.71 30.7189C150.71 13.2789 162.89 4.12891 174.77 4.12891C188.02 4.12891 197.17 13.7689 197.17 27.2189L197.19 27.2089ZM160.08 26.4289H188.72C188.43 16.7889 182.39 11.7189 174.59 11.7189C167.87 11.7189 161.15 16.5889 160.08 26.4289Z" fill="#252525"/>
<path d="M242.97 22.9209C242.97 16.4909 238.1 12.4009 230.89 12.4009C227.42 12.4009 224.06 13.4909 221.23 15.8809C217.85 18.7309 216.18 23.1209 216.18 27.5309V54.6809C216.18 57.0209 214.33 58.2809 211.89 58.2809C209.45 58.2809 207.51 57.0109 207.51 54.6809V8.41094C207.51 6.17094 209.36 4.90094 211.89 4.90094C214.23 4.90094 216.18 6.17094 216.18 8.41094V13.2809C220.17 7.82094 226.7 4.71094 233.52 4.71094C242.87 4.71094 251.54 10.4609 251.54 21.4609V54.6809C251.54 57.0209 249.69 58.2809 247.25 58.2809C244.81 58.2809 242.96 57.0109 242.96 54.6809V22.9209H242.97Z" fill="#252525"/>
<path d="M359.16 7.41094C363.35 9.75094 360.23 16.0809 355.85 13.7409C353.41 12.1809 348.06 10.7209 343.77 10.7209C337.24 10.7209 332.57 13.6409 332.57 18.3209C332.57 23.0009 336.47 25.3309 342.41 26.4109L347.48 27.2909C356.15 28.9509 362.19 33.6209 362.19 41.9009C362.19 51.0609 353.81 57.9709 341.83 57.9709C334.72 57.9709 328.68 56.2209 324.3 53.0009C320.21 50.2709 323.72 43.4509 328.29 46.1809C331.6 48.7109 337.15 50.5609 341.73 50.5609C349.23 50.5609 353.52 46.8609 353.52 42.2809C353.52 37.7009 349.82 35.2709 343.88 34.1009L338.62 33.1309C330.63 31.5709 323.81 26.8009 323.81 18.4209C323.81 10.0409 331.8 3.71094 343.2 3.71094C350.6 3.71094 356.06 5.56094 359.18 7.41094H359.16Z" fill="#252525"/>
<path d="M42.68 26.33H28.31C27.34 26.33 26.52 26.73 25.94 27.47C25.45 28.1 25.18 28.95 25.18 29.85C25.18 31.6 26.26 33.37 28.31 33.37H39.06C39.8267 33.37 40.21 33.75 40.21 34.51V47.91C37.45 49.7 32.61 50.94 28.31 50.94C15.99 50.94 8.63 42.61 8.63 28.65C8.63 15.46 16.11 7.27 28.15 7.27C32.47 7.27 37.13 8.58 40.32 10.71C42.42 11.93 44.26 11.05 45.15 9.64C46.09 8.15 46.11 5.88 44.27 4.61C40.17 1.72 34 0 27.75 0C10.89 0 0 11.3 0 28.8C0 46.3 10.86 58.29 27.67 58.29C34.38 58.29 40.75 56.73 45.13 54.01C47.45 52.56 48.28 51.03 48.28 48.13V31.61C48.28 27.67 46.87 26.33 42.68 26.33Z" fill="#252525"/>
<path d="M302.55 22.8597C302.55 20.1397 304.76 17.9297 307.48 17.9297C310.2 17.9297 312.41 20.1397 312.41 22.8597V24.3897C312.41 27.1097 310.2 29.3197 307.48 29.3197C304.76 29.3197 302.55 27.1097 302.55 24.3897V22.8597Z" fill="#252525"/>
<path d="M264.87 22.8597C264.87 20.1397 267.08 17.9297 269.8 17.9297C272.52 17.9297 274.73 20.1397 274.73 22.8597V24.3897C274.73 27.1097 272.52 29.3197 269.8 29.3197C267.08 29.3197 264.87 27.1097 264.87 24.3897V22.8597Z" fill="#252525"/>
<path d="M288.65 47.2409C282.09 47.2409 275.53 44.7409 270.54 39.7509C269.17 38.3809 269.17 36.1709 270.54 34.8009C271.91 33.4309 274.12 33.4309 275.49 34.8009C282.75 42.0609 294.56 42.0609 301.81 34.8009C303.18 33.4309 305.39 33.4309 306.76 34.8009C308.13 36.1709 308.13 38.3809 306.76 39.7509C301.77 44.7409 295.21 47.2409 288.65 47.2409Z" fill="#252525"/>
</svg>
