<?xml version="1.0" encoding="utf-8"?>
<!-- Generator: Adobe Illustrator 26.0.0, SVG Export Plug-In . SVG Version: 6.00 Build 0)  -->
<svg version="1.1" id="레이어_1" xmlns="http://www.w3.org/2000/svg" xmlns:xlink="http://www.w3.org/1999/xlink" x="0px"
	 y="0px" viewBox="0 0 20 20" style="enable-background:new 0 0 20 20;" xml:space="preserve">
<style type="text/css">
	.st0{fill:#FFFFFF;}
	.st1{fill:#D3D3D4;stroke:#D3D3D4;}
	.st2{fill:none;stroke:#D3D3D4;}
</style>
<path class="st0" d="M17.8,0H2.1C1,0,0,1,0,2.1v15.7C0,19,1,20,2.1,20h15.7c1.2,0,2.1-1,2.1-2.1V2.1C20,0.9,19,0,17.8,0z M4.7,9.4
	c0.3-0.3,0.8-0.3,1.2,0l2.3,2.3c0.1,0.1,0.2,0.1,0.3,0l5.6-5.6c0.3-0.3,0.8-0.3,1.2,0c0.3,0.3,0.3,0.8,0,1.2l-6.6,6.6
	C8.5,14,8.2,14,8,13.8l-3.2-3.3C4.4,10.2,4.4,9.7,4.7,9.4z"/>
<path class="st1" d="M5.9,9.4c-0.3-0.3-0.8-0.3-1.2,0c-0.3,0.3-0.3,0.8,0,1.2L8,13.8c0.2,0.2,0.5,0.2,0.7,0l6.6-6.6
	c0.3-0.3,0.3-0.8,0-1.2c-0.3-0.3-0.8-0.3-1.2,0l-5.6,5.6c-0.1,0.1-0.2,0.1-0.3,0L5.9,9.4z"/>
<path class="st2" d="M2.1,0.5h15.7c0.9,0,1.6,0.7,1.7,1.6v15.7c0,0.9-0.7,1.6-1.6,1.6H2.1c-0.9,0-1.6-0.7-1.6-1.6V2.1
	C0.5,1.2,1.2,0.5,2.1,0.5z"/>
</svg>
