<svg width="20" height="20" viewBox="0 0 20 20" fill="none" xmlns="http://www.w3.org/2000/svg">
<path d="M17.8331 0H2.13759C0.966383 0 0 0.96633 0 2.13759V17.8624C0 19.0336 0.96633 20 2.13759 20H17.8624C19.0336 20 20 19.0337 20 17.8624V2.13811C19.9708 0.937466 19.0338 0 17.8331 0ZM4.74375 9.39976C5.06587 9.07764 5.59284 9.07764 5.91495 9.39976L8.16978 11.6546C8.25761 11.7424 8.37486 11.7424 8.46269 11.6546L14.0557 6.06158C14.3778 5.73946 14.9048 5.73946 15.2269 6.06158C15.549 6.3837 15.549 6.91067 15.2269 7.23278L8.63828 13.8214C8.46262 13.9971 8.16971 13.9971 7.96483 13.8214L4.74383 10.571C4.42171 10.2489 4.42163 9.72187 4.74375 9.39976Z" fill="#66F095"/>
</svg>
