<svg width="58" height="58" viewBox="0 0 58 58" fill="none" xmlns="http://www.w3.org/2000/svg">
<path d="M18.9879 18.4553C20.861 11.178 27.4671 5.80078 35.3291 5.80078C44.6476 5.80078 52.2018 13.355 52.2018 22.6735C52.2018 30.1028 47.4001 36.4107 40.7309 38.663M39.5433 35.328C39.5433 44.6466 31.9891 52.2008 22.6706 52.2008C13.352 52.2008 5.79785 44.6466 5.79785 35.328C5.79785 26.0095 13.352 18.4553 22.6706 18.4553C31.9891 18.4553 39.5433 26.0095 39.5433 35.328Z" stroke="#4E5052" stroke-width="3" stroke-linecap="round" stroke-linejoin="round"/>
<path d="M14 30L19.2258 43L23.2903 30L27.3548 43L32 30M32.5 35.4737H13.5" stroke="#4E5052" stroke-width="3" stroke-linecap="round" stroke-linejoin="round"/>
</svg>
