<svg width="20" height="20" viewBox="0 0 20 20" fill="none" xmlns="http://www.w3.org/2000/svg">
<path d="M10.8264 1.04237C12.9018 1.24508 14.8415 2.16659 16.3111 3.64805L16.3559 3.66599C17.8351 5.13784 18.7553 7.08044 18.9577 9.1589C19.1601 11.2373 18.6321 13.3214 17.4647 15.0518C16.2972 16.7821 14.5636 18.0503 12.5626 18.6378C10.5616 19.2252 8.41867 19.0951 6.50321 18.2698C6.32239 18.1934 6.12481 18.1656 5.92997 18.189L2.09637 18.9605H1.91724C1.79636 18.9636 1.67611 18.9421 1.56373 18.8974C1.45136 18.8527 1.34919 18.7857 1.26337 18.7003C1.1587 18.595 1.08179 18.4653 1.03958 18.3228C0.99737 18.1803 0.991169 18.0295 1.02154 17.884L1.80975 14.0896C1.84321 13.8945 1.81503 13.6938 1.72914 13.5155C0.905073 11.5972 0.775123 9.451 1.36169 7.44702C1.94826 5.44303 3.21459 3.70679 4.94236 2.53764C6.67013 1.36848 8.75106 0.839669 10.8264 1.04237Z" stroke="#919193" stroke-width="2"/>
</svg>
