<svg width="32" height="24" viewBox="0 0 32 24" fill="none" xmlns="http://www.w3.org/2000/svg">
<path d="M2 2V2V0C0.89543 0 0 0.895431 0 2H2ZM2 6.6V2H0V6.6H2ZM1.75474 8.68991C3.18965 9.0386 4.28571 10.3752 4.28571 12H6.28571C6.28571 9.46498 4.57048 7.31595 2.22701 6.74647L1.75474 8.68991ZM4.28571 12C4.28571 13.6248 3.18965 14.9614 1.75474 15.3101L2.22701 17.2535C4.57048 16.6841 6.28571 14.535 6.28571 12H4.28571ZM2 22V17.4H0V22H2ZM2 22H2H0C0 23.1046 0.895432 24 2 24V22ZM30 22H2V24H30V22ZM30 22V24C31.1046 24 32 23.1046 32 22H30ZM30 2V22H32V2H30ZM30 2H32C32 0.89543 31.1046 0 30 0V2ZM2 2H30V0H2V2ZM1.75474 15.3101C0.913632 15.5145 0 16.2532 0 17.4H2C2 17.3998 1.99998 17.4006 1.99978 17.4016C1.99959 17.4025 1.99956 17.4021 2.00039 17.4001C2.0021 17.3961 2.0086 17.3829 2.02642 17.3638C2.0656 17.3216 2.13701 17.2754 2.22701 17.2535L1.75474 15.3101ZM0 6.6C0 7.74678 0.91363 8.48552 1.75474 8.68991L2.22701 6.74647C2.13702 6.7246 2.0656 6.67836 2.02642 6.63624C2.0086 6.61708 2.0021 6.60393 2.00039 6.5999C1.99956 6.59793 1.99959 6.59753 1.99978 6.59843C1.99998 6.59942 2 6.60016 2 6.6H0Z" fill="#252525"/>
<line x1="23.9639" y1="10.9004" x2="23.9639" y2="14.2004" stroke="#252525" stroke-width="2"/>
<line x1="23.9639" y1="16.4004" x2="23.9639" y2="19.7004" stroke="#252525" stroke-width="2"/>
<line x1="23.9639" y1="5.40039" x2="23.9639" y2="8.70039" stroke="#252525" stroke-width="2"/>
</svg>
