<svg width="94" height="16" viewBox="0 0 94 16" fill="none" xmlns="http://www.w3.org/2000/svg">
<path d="M17.9102 2.36073V3.93905C18.8965 2.25368 20.5393 1.29297 22.1328 1.29297C22.7401 1.29297 23.5732 1.37257 24.03 1.72117C24.2584 1.88038 24.4608 2.20153 24.4608 2.49523C24.4608 2.70934 24.4349 3.9665 23.4487 3.93905C23.2722 3.93905 22.9945 3.88415 22.6908 3.80455C22.3612 3.72495 22.0342 3.67005 21.7565 3.67005C21.7409 3.67005 21.7254 3.67005 21.7098 3.67005C19.5972 3.65632 17.9154 5.55305 17.9154 7.78465V15.0339C17.9154 15.6488 17.4353 15.9974 16.828 15.9974C16.1454 15.9974 15.6653 15.6488 15.6653 15.0339V2.36073C15.6653 1.74588 16.1454 1.37257 16.828 1.37257C17.4353 1.37257 17.9154 1.74588 17.9154 2.36073H17.9102Z" fill="black"/>
<path d="M37.0716 7.46803C37.0716 8.59069 36.742 9.1781 35.2756 9.1781H27.4118C27.513 12.3073 29.283 13.9378 31.6084 13.9378C33.3032 13.9378 34.4399 13.4574 35.1978 12.9221C36.21 12.2002 37.1702 13.806 36.21 14.6075C35.325 15.302 33.7081 15.9992 31.5825 15.9992C27.6895 15.9992 25.0085 13.2186 25.0085 8.43149C25.0085 3.64439 28.1696 1.13281 31.2529 1.13281C34.6917 1.13281 37.0664 3.77889 37.0664 7.47078L37.0716 7.46803ZM27.4404 7.25393H34.8734C34.7981 4.60785 33.2305 3.21619 31.2062 3.21619C29.4621 3.21619 27.7181 4.55295 27.4404 7.25393Z" fill="black"/>
<path d="M51.1771 7.46803C51.1771 8.59069 50.8475 9.1781 49.3811 9.1781H41.5173C41.6185 12.3073 43.3885 13.9378 45.7139 13.9378C47.4087 13.9378 48.5454 13.4574 49.3032 12.9221C50.3154 12.2002 51.2757 13.806 50.3154 14.6075C49.4304 15.302 47.8135 15.9992 45.688 15.9992C41.795 15.9992 39.114 13.2186 39.114 8.43149C39.114 3.64439 42.2751 1.13281 45.3584 1.13281C48.7972 1.13281 51.1719 3.77889 51.1719 7.47078L51.1771 7.46803ZM41.5458 7.25393H48.9788C48.9036 4.60785 47.336 3.21619 45.3116 3.21619C43.5676 3.21619 41.8235 4.55295 41.5458 7.25393Z" fill="black"/>
<path d="M63.0585 6.29142C63.0585 4.52646 61.7946 3.40379 59.9233 3.40379C59.0228 3.40379 58.1507 3.70299 57.4163 4.35902C56.539 5.14131 56.1056 6.34632 56.1056 7.55682V15.0092C56.1056 15.6515 55.6255 15.9974 54.9922 15.9974C54.359 15.9974 53.8555 15.6488 53.8555 15.0092V2.30858C53.8555 1.69372 54.3356 1.34512 54.9922 1.34512C55.5995 1.34512 56.1056 1.69372 56.1056 2.30858V3.64534C57.1411 2.14663 58.8359 1.29297 60.6059 1.29297C63.0325 1.29297 65.2827 2.87128 65.2827 5.89067V15.0092C65.2827 15.6515 64.8025 15.9974 64.1693 15.9974C63.536 15.9974 63.0559 15.6488 63.0559 15.0092V6.29142H63.0585Z" fill="black"/>
<path d="M93.2137 2.03319C94.3011 2.6755 93.4914 4.41301 92.3546 3.77071C91.7213 3.3425 90.3328 2.94175 89.2195 2.94175C87.5247 2.94175 86.3127 3.74326 86.3127 5.02787C86.3127 6.31248 87.3249 6.95204 88.8665 7.24849L90.1823 7.49004C92.4325 7.9457 94 9.22756 94 11.5003C94 14.0147 91.8252 15.9114 88.716 15.9114C86.8707 15.9114 85.3031 15.431 84.1664 14.5472C83.1049 13.7978 84.0158 11.9258 85.2019 12.6752C86.0609 13.3696 87.5014 13.8774 88.69 13.8774C90.6365 13.8774 91.7499 12.8618 91.7499 11.6046C91.7499 10.3475 90.7896 9.68047 89.248 9.35932L87.8829 9.09306C85.8092 8.66486 84.0392 7.35554 84.0392 5.05532C84.0392 2.7551 86.1129 1.01758 89.0715 1.01758C90.9921 1.01758 92.4091 1.52538 93.2188 2.03319H93.2137Z" fill="black"/>
<path d="M11.0768 7.22731H7.34736C7.09561 7.22731 6.88279 7.33711 6.73226 7.54023C6.60509 7.71316 6.53502 7.94647 6.53502 8.19351C6.53502 8.67387 6.81532 9.15972 7.34736 9.15972H10.1373C10.3363 9.15972 10.4358 9.26402 10.4358 9.47264V13.1508C9.71948 13.6421 8.46334 13.9825 7.34736 13.9825C4.14992 13.9825 2.23976 11.696 2.23976 7.86413C2.23976 4.24361 4.18106 1.99554 7.30583 1.99554C8.42701 1.99554 9.63643 2.35512 10.4643 2.93978C11.0094 3.27466 11.4869 3.03311 11.7179 2.64608C11.9618 2.23709 11.967 1.614 11.4895 1.2654C10.4254 0.472122 8.82409 0 7.20202 0C2.82631 0 0 3.10173 0 7.9053C0 12.7089 2.81852 16 7.18126 16C8.92272 16 10.5759 15.5718 11.7127 14.8252C12.3148 14.4272 12.5302 14.0072 12.5302 13.2112V8.67662C12.5302 7.59513 12.1643 7.22731 11.0768 7.22731Z" fill="black"/>
<path d="M78.5215 6.27511C78.5215 5.5285 79.0951 4.92188 79.801 4.92188C80.5069 4.92188 81.0805 5.5285 81.0805 6.27511V6.69508C81.0805 7.44169 80.5069 8.04831 79.801 8.04831C79.0951 8.04831 78.5215 7.44169 78.5215 6.69508V6.27511Z" fill="black"/>
<path d="M68.7424 6.27511C68.7424 5.5285 69.316 4.92188 70.0219 4.92188C70.7279 4.92188 71.3014 5.5285 71.3014 6.27511V6.69508C71.3014 7.44169 70.7279 8.04831 70.0219 8.04831C69.316 8.04831 68.7424 7.44169 68.7424 6.69508V6.27511Z" fill="black"/>
<path d="M74.9141 12.9662C73.2115 12.9662 71.509 12.28 70.2139 10.9103C69.8584 10.5342 69.8584 9.92762 70.2139 9.55157C70.5695 9.17552 71.1431 9.17552 71.4986 9.55157C73.3828 11.5444 76.4479 11.5444 78.3295 9.55157C78.6851 9.17552 79.2586 9.17552 79.6142 9.55157C79.9697 9.92762 79.9697 10.5342 79.6142 10.9103C78.3191 12.28 76.6166 12.9662 74.9141 12.9662Z" fill="black"/>
</svg>
