<svg width="363" height="59" viewBox="0 0 363 59" fill="none" xmlns="http://www.w3.org/2000/svg">
<path d="M69.0094 8.60094V14.3509C72.8094 8.21094 79.1394 4.71094 85.2794 4.71094C87.6194 4.71094 90.8294 5.00094 92.5894 6.27094C93.4694 6.85094 94.2494 8.02094 94.2494 9.09094C94.2494 9.87094 94.1494 14.4509 90.3494 14.3509C89.6694 14.3509 88.5994 14.1509 87.4294 13.8609C86.1594 13.5709 84.8994 13.3709 83.8294 13.3709C83.7694 13.3709 83.7094 13.3709 83.6494 13.3709C75.5094 13.3209 69.0294 20.2309 69.0294 28.3609V54.7709C69.0294 57.0109 67.1794 58.2809 64.8394 58.2809C62.2094 58.2809 60.3594 57.0109 60.3594 54.7709V8.60094C60.3594 6.36094 62.2094 5.00094 64.8394 5.00094C67.1794 5.00094 69.0294 6.36094 69.0294 8.60094H69.0094Z" fill="black"/>
<path d="M142.839 27.2089C142.839 31.2989 141.569 33.4389 135.919 33.4389H105.619C106.009 44.8389 112.829 50.7789 121.789 50.7789C128.319 50.7789 132.699 49.0289 135.619 47.0789C139.519 44.4489 143.219 50.2989 139.519 53.2189C136.109 55.7489 129.879 58.2889 121.689 58.2889C106.689 58.2889 96.3594 48.1589 96.3594 30.7189C96.3594 13.2789 108.539 4.12891 120.419 4.12891C133.669 4.12891 142.819 13.7689 142.819 27.2189L142.839 27.2089ZM105.729 26.4289H134.369C134.079 16.7889 128.039 11.7189 120.239 11.7189C113.519 11.7189 106.799 16.5889 105.729 26.4289Z" fill="black"/>
<path d="M197.191 27.2089C197.191 31.2989 195.921 33.4389 190.271 33.4389H159.971C160.361 44.8389 167.181 50.7789 176.141 50.7789C182.671 50.7789 187.051 49.0289 189.971 47.0789C193.871 44.4489 197.571 50.2989 193.871 53.2189C190.461 55.7489 184.231 58.2889 176.041 58.2889C161.041 58.2889 150.711 48.1589 150.711 30.7189C150.711 13.2789 162.891 4.12891 174.771 4.12891C188.021 4.12891 197.171 13.7689 197.171 27.2189L197.191 27.2089ZM160.081 26.4289H188.721C188.431 16.7889 182.391 11.7189 174.591 11.7189C167.871 11.7189 161.151 16.5889 160.081 26.4289Z" fill="black"/>
<path d="M242.97 22.9209C242.97 16.4909 238.1 12.4009 230.89 12.4009C227.42 12.4009 224.06 13.4909 221.23 15.8809C217.85 18.7309 216.18 23.1209 216.18 27.5309V54.6809C216.18 57.0209 214.33 58.2809 211.89 58.2809C209.45 58.2809 207.51 57.0109 207.51 54.6809V8.41094C207.51 6.17094 209.36 4.90094 211.89 4.90094C214.23 4.90094 216.18 6.17094 216.18 8.41094V13.2809C220.17 7.82094 226.7 4.71094 233.52 4.71094C242.87 4.71094 251.54 10.4609 251.54 21.4609V54.6809C251.54 57.0209 249.69 58.2809 247.25 58.2809C244.81 58.2809 242.96 57.0109 242.96 54.6809V22.9209H242.97Z" fill="black"/>
<path d="M359.16 7.41094C363.35 9.75094 360.23 16.0809 355.85 13.7409C353.41 12.1809 348.06 10.7209 343.77 10.7209C337.24 10.7209 332.57 13.6409 332.57 18.3209C332.57 23.0009 336.47 25.3309 342.41 26.4109L347.48 27.2909C356.15 28.9509 362.19 33.6209 362.19 41.9009C362.19 51.0609 353.81 57.9709 341.83 57.9709C334.72 57.9709 328.68 56.2209 324.3 53.0009C320.21 50.2709 323.72 43.4509 328.29 46.1809C331.6 48.7109 337.15 50.5609 341.73 50.5609C349.23 50.5609 353.52 46.8609 353.52 42.2809C353.52 37.7009 349.82 35.2709 343.88 34.1009L338.62 33.1309C330.63 31.5709 323.81 26.8009 323.81 18.4209C323.81 10.0409 331.8 3.71094 343.2 3.71094C350.6 3.71094 356.06 5.56094 359.18 7.41094H359.16Z" fill="black"/>
<path d="M42.68 26.33H28.31C27.34 26.33 26.52 26.73 25.94 27.47C25.45 28.1 25.18 28.95 25.18 29.85C25.18 31.6 26.26 33.37 28.31 33.37H39.06C39.8267 33.37 40.21 33.75 40.21 34.51V47.91C37.45 49.7 32.61 50.94 28.31 50.94C15.99 50.94 8.63 42.61 8.63 28.65C8.63 15.46 16.11 7.27 28.15 7.27C32.47 7.27 37.13 8.58 40.32 10.71C42.42 11.93 44.26 11.05 45.15 9.64C46.09 8.15 46.11 5.88 44.27 4.61C40.17 1.72 34 0 27.75 0C10.89 0 0 11.3 0 28.8C0 46.3 10.86 58.29 27.67 58.29C34.38 58.29 40.75 56.73 45.13 54.01C47.45 52.56 48.28 51.03 48.28 48.13V31.61C48.28 27.67 46.87 26.33 42.68 26.33Z" fill="black"/>
<path d="M302.551 22.8597C302.551 20.1397 304.761 17.9297 307.481 17.9297C310.201 17.9297 312.411 20.1397 312.411 22.8597V24.3897C312.411 27.1097 310.201 29.3197 307.481 29.3197C304.761 29.3197 302.551 27.1097 302.551 24.3897V22.8597Z" fill="black"/>
<path d="M264.871 22.8597C264.871 20.1397 267.081 17.9297 269.801 17.9297C272.521 17.9297 274.731 20.1397 274.731 22.8597V24.3897C274.731 27.1097 272.521 29.3197 269.801 29.3197C267.081 29.3197 264.871 27.1097 264.871 24.3897V22.8597Z" fill="black"/>
<path d="M288.649 47.2409C282.089 47.2409 275.529 44.7409 270.539 39.7509C269.169 38.3809 269.169 36.1709 270.539 34.8009C271.909 33.4309 274.119 33.4309 275.489 34.8009C282.749 42.0609 294.559 42.0609 301.809 34.8009C303.179 33.4309 305.389 33.4309 306.759 34.8009C308.129 36.1709 308.129 38.3809 306.759 39.7509C301.769 44.7409 295.209 47.2409 288.649 47.2409Z" fill="black"/>
</svg>
