<svg width="138" height="23" viewBox="0 0 138 23" fill="none" xmlns="http://www.w3.org/2000/svg">
<path d="M26.2941 3.27902V5.46986C27.7419 3.13043 30.1538 1.79688 32.4932 1.79688C33.3848 1.79688 34.6078 1.90737 35.2784 2.39126C35.6137 2.61225 35.9109 3.05803 35.9109 3.46572C35.9109 3.76291 35.8728 5.50796 34.4249 5.46986C34.1658 5.46986 33.7582 5.39366 33.3124 5.28316C32.8285 5.17267 32.3484 5.09647 31.9407 5.09647C31.9179 5.09647 31.895 5.09647 31.8721 5.09647C28.7707 5.07741 26.3017 7.71023 26.3017 10.8079V20.8705C26.3017 21.724 25.5968 22.2078 24.7052 22.2078C23.7032 22.2078 22.9983 21.724 22.9983 20.8705V3.27902C22.9983 2.42555 23.7032 1.90737 24.7052 1.90737C25.5968 1.90737 26.3017 2.42555 26.3017 3.27902H26.2941Z" fill="#252525"/>
<path d="M54.4247 10.368C54.4247 11.9264 53.9408 12.7418 51.788 12.7418H40.2433C40.3919 17.0853 42.9904 19.3486 46.4043 19.3486C48.8923 19.3486 50.5612 18.6818 51.6737 17.9388C53.1597 16.9367 54.5695 19.1657 53.1597 20.2782C51.8604 21.2422 49.4867 22.21 46.3662 22.21C40.651 22.21 36.7151 18.3503 36.7151 11.7054C36.7151 5.06051 41.3559 1.57422 45.8823 1.57422C50.9308 1.57422 54.417 5.2472 54.417 10.3719L54.4247 10.368ZM40.2852 10.0709H51.1975C51.087 6.39787 48.7856 4.46612 45.8137 4.46612C43.2533 4.46612 40.6929 6.32167 40.2852 10.0709Z" fill="#252525"/>
<path d="M75.1324 10.368C75.1324 11.9264 74.6485 12.7418 72.4958 12.7418H60.951C61.0996 17.0853 63.6982 19.3486 67.1121 19.3486C69.6001 19.3486 71.2689 18.6818 72.3815 17.9388C73.8675 16.9367 75.2772 19.1657 73.8675 20.2782C72.5682 21.2422 70.1945 22.21 67.074 22.21C61.3587 22.21 57.4229 18.3503 57.4229 11.7054C57.4229 5.06051 62.0636 1.57422 66.5901 1.57422C71.6385 1.57422 75.1248 5.2472 75.1248 10.3719L75.1324 10.368ZM60.993 10.0709H71.9052C71.7947 6.39787 69.4934 4.46612 66.5215 4.46612C63.9611 4.46612 61.4006 6.32167 60.993 10.0709Z" fill="#252525"/>
<path d="M92.5752 8.73516C92.5752 6.28523 90.7197 4.72688 87.9726 4.72688C86.6505 4.72688 85.3703 5.14219 84.292 6.05281C83.0041 7.13871 82.3679 8.81136 82.3679 10.4916V20.8362C82.3679 21.7278 81.663 22.2078 80.7333 22.2078C79.8036 22.2078 79.0645 21.724 79.0645 20.8362V3.20663C79.0645 2.35316 79.7693 1.86927 80.7333 1.86927C81.6249 1.86927 82.3679 2.35316 82.3679 3.20663V5.06217C83.8881 2.98183 86.3761 1.79688 88.9747 1.79688C92.5371 1.79688 95.8405 3.98771 95.8405 8.17888V20.8362C95.8405 21.7278 95.1357 22.2078 94.206 22.2078C93.2763 22.2078 92.5714 21.724 92.5714 20.8362V8.73516H92.5752Z" fill="#252525"/>
<path d="M136.845 2.82382C138.442 3.71539 137.253 6.12722 135.584 5.23564C134.655 4.64126 132.616 4.08498 130.982 4.08498C128.494 4.08498 126.714 5.19754 126.714 6.98069C126.714 8.76384 128.2 9.65161 130.463 10.0631L132.395 10.3984C135.699 11.0309 138 12.8102 138 15.965C138 19.4551 134.807 22.0879 130.242 22.0879C127.533 22.0879 125.232 21.4212 123.563 20.1943C122.005 19.1541 123.342 16.5556 125.083 17.5958C126.345 18.5597 128.459 19.2646 130.204 19.2646C133.062 19.2646 134.696 17.8549 134.696 16.1098C134.696 14.3648 133.287 13.4389 131.023 12.9931L129.019 12.6235C125.975 12.0291 123.376 10.2117 123.376 7.01879C123.376 3.82589 126.421 1.41406 130.764 1.41406C133.584 1.41406 135.664 2.11894 136.853 2.82382H136.845Z" fill="#252525"/>
<path d="M16.2617 10.0321H10.7865C10.417 10.0321 10.1045 10.1845 9.88353 10.4665C9.69683 10.7065 9.59396 11.0304 9.59396 11.3733C9.59396 12.0401 10.0055 12.7145 10.7865 12.7145H14.8824C15.1746 12.7145 15.3206 12.8593 15.3206 13.1488V18.2544C14.269 18.9364 12.4249 19.4089 10.7865 19.4089C6.09243 19.4089 3.28816 16.2351 3.28816 10.9161C3.28816 5.89049 6.13815 2.76998 10.7256 2.76998C12.3716 2.76998 14.1471 3.26911 15.3625 4.08067C16.1627 4.54551 16.8637 4.21022 17.2028 3.67299C17.561 3.10527 17.5686 2.24037 16.8675 1.75648C15.3054 0.655346 12.9545 0 10.5732 0C4.14925 0 0 4.30547 0 10.9732C0 17.641 4.13782 22.2094 10.5427 22.2094C13.0993 22.2094 15.5264 21.615 17.1952 20.5786C18.0792 20.0261 18.3954 19.4432 18.3954 18.3383V12.0439C18.3954 10.5427 17.8582 10.0321 16.2617 10.0321Z" fill="#252525"/>
<path d="M115.277 8.70848C115.277 7.67212 116.119 6.83008 117.156 6.83008C118.192 6.83008 119.034 7.67212 119.034 8.70848V9.29143C119.034 10.3278 118.192 11.1698 117.156 11.1698C116.119 11.1698 115.277 10.3278 115.277 9.29143V8.70848Z" fill="#252525"/>
<path d="M99.3083 8.32567C99.3083 7.28931 100.15 6.44727 101.187 6.44727C102.223 6.44727 103.065 7.28931 103.065 8.32567V8.90862C103.065 9.94498 102.223 10.787 101.187 10.787C100.15 10.787 99.3083 9.94498 99.3083 8.90862V8.32567Z" fill="#252525"/>
<path d="M109.98 17.9985C107.48 17.9985 104.981 17.046 103.08 15.1447C102.558 14.6227 102.558 13.7807 103.08 13.2587C103.602 12.7367 104.444 12.7367 104.966 13.2587C107.732 16.0248 112.232 16.0248 114.994 13.2587C115.516 12.7367 116.358 12.7367 116.88 13.2587C117.402 13.7807 117.402 14.6227 116.88 15.1447C114.979 17.046 112.479 17.9985 109.98 17.9985Z" fill="#252525"/>
</svg>
