<svg width="16" height="18" viewBox="0 0 16 18" fill="none" xmlns="http://www.w3.org/2000/svg">
<path d="M1.09238 13.5196L0.292281 12.9198L0.29228 12.9198L1.09238 13.5196ZM2.10998 10.5962L1.10998 10.5841V10.5962H2.10998ZM2.13134 8.82871L3.13134 8.84079V8.82871H2.13134ZM14.9131 13.5338L15.725 12.9501L15.725 12.9501L14.9131 13.5338ZM13.9337 10.5962L12.9337 10.5835V10.5962H13.9337ZM13.9551 8.91629L14.9551 8.92901V8.91629H13.9551ZM1.89247 14.1195C2.49836 13.3114 3.10998 12.0928 3.10998 10.5962H1.10998C1.10998 11.5392 0.722025 12.3466 0.292281 12.9198L1.89247 14.1195ZM3.10991 10.6083L3.13127 8.84079L1.13141 8.81662L1.11006 10.5841L3.10991 10.6083ZM15.725 12.9501C15.3137 12.378 14.9337 11.5596 14.9337 10.5962H12.9337C12.9337 12.0892 13.5189 13.3078 14.1011 14.1176L15.725 12.9501ZM14.9337 10.6089L14.955 8.92901L12.9552 8.90358L12.9338 10.5835L14.9337 10.6089ZM14.9551 8.91629C14.9551 7.14985 14.618 4.9764 13.5928 3.20716C12.5341 1.38012 10.7382 0 8 0V2C9.92842 2 11.1102 2.91188 11.8623 4.20991C12.648 5.56573 12.9551 7.35043 12.9551 8.91629H14.9551ZM14.5567 15.353C15.2692 15.353 15.7038 14.8474 15.8739 14.4426C16.0439 14.038 16.0833 13.4484 15.725 12.9501L14.1011 14.1176C13.9574 13.9176 14.0008 13.7375 14.03 13.6679C14.0593 13.5982 14.2085 13.353 14.5567 13.353V15.353ZM3.13134 8.82871C3.13134 7.27956 3.41934 5.51701 4.18391 4.17902C4.91305 2.90304 6.07024 2 8 2V0C5.26309 0 3.48595 1.36935 2.44743 3.18674C1.44434 4.94212 1.13134 7.09392 1.13134 8.82871H3.13134ZM1.44418 13.353C1.79983 13.353 1.94619 13.6064 1.97233 13.6706C1.99869 13.7353 2.04369 13.9178 1.89247 14.1195L0.29228 12.9198C-0.0820884 13.4191 -0.045646 14.0183 0.120182 14.4253C0.285776 14.8317 0.719618 15.353 1.44418 15.353V13.353ZM14.5567 13.353H1.44418V15.353H14.5567V13.353ZM9.87778 14.353C9.87778 15.2104 9.12557 16 8.07778 16V18C10.1228 18 11.8778 16.4194 11.8778 14.353H9.87778ZM8.07778 16C7.02999 16 6.27778 15.2104 6.27778 14.353H4.27778C4.27778 16.4194 6.03277 18 8.07778 18V16Z" fill="black"/>
</svg>
