<svg width="32" height="32" viewBox="0 0 32 32" fill="none" xmlns="http://www.w3.org/2000/svg">
<path d="M31 16C31 24.2843 24.2843 31 16 31C7.71573 31 1 24.2843 1 16C1 7.71573 7.71573 1 16 1C24.2843 1 31 7.71573 31 16Z" stroke="#252525" stroke-width="2"/>
<path d="M11 9H16.1613C17.186 9 18.0588 9.21064 18.7799 9.63191C19.5073 10.0532 20.0576 10.6402 20.4307 11.393C20.8039 12.1388 20.9937 12.9986 21 13.9724C20.9937 14.9392 20.8008 15.7956 20.4213 16.5414C20.0481 17.2873 19.4946 17.8709 18.7609 18.2921C18.0335 18.7134 17.1543 18.924 16.1233 18.924H13.4668V24H11V9ZM15.7818 16.7072C16.6799 16.7003 17.3536 16.4517 17.8027 15.9613C18.2517 15.4641 18.4763 14.8011 18.4763 13.9724C18.4763 13.1367 18.2517 12.4772 17.8027 11.9938C17.3536 11.5035 16.6799 11.2583 15.7818 11.2583H13.4668V16.7072H15.7818Z" fill="#252525"/>
</svg>
