<svg width="37" height="37" viewBox="0 0 37 37" fill="none" xmlns="http://www.w3.org/2000/svg">
<path d="M17.7218 4.18316C18.0402 3.5379 18.9604 3.5379 19.2788 4.18316L23.4012 12.5361C23.5277 12.7923 23.7721 12.9699 24.0549 13.011L33.2729 14.3505C33.985 14.454 34.2693 15.329 33.7541 15.8313L27.0838 22.3332C26.8792 22.5326 26.7859 22.82 26.8342 23.1016L28.4088 32.2824C28.5304 32.9916 27.786 33.5324 27.1491 33.1976L18.9043 28.863C18.6514 28.73 18.3492 28.73 18.0963 28.863L9.85146 33.1976C9.21455 33.5324 8.47016 32.9916 8.5918 32.2824L10.1664 23.1016C10.2147 22.82 10.1214 22.5326 9.91674 22.3332L3.24652 15.8313C2.73125 15.329 3.01558 14.454 3.72767 14.3505L12.9457 13.011C13.2285 12.9699 13.4729 12.7923 13.5994 12.5361L17.7218 4.18316Z" fill="#BDBDBE"/>
<path d="M17.7218 4.18359L18.0963 28.8634L9.85146 33.198C9.21455 33.5328 8.47016 32.992 8.5918 32.2828L10.1664 23.102C10.2147 22.8204 10.1214 22.533 9.91674 22.3336L3.24652 15.8317C2.73125 15.3295 3.01559 14.4544 3.72767 14.3509L12.9457 13.0115C13.2285 12.9704 13.4729 12.7928 13.5994 12.5365L17.7218 4.18359Z" fill="#66F095" stroke="#66F095" stroke-linejoin="round"/>
</svg>
