<svg width="28" height="27" viewBox="0 0 28 27" fill="none" xmlns="http://www.w3.org/2000/svg">
<path d="M13.369 1.50508C13.6272 0.964454 14.3732 0.964454 14.6314 1.50508L17.9739 8.50349C18.0765 8.71817 18.2747 8.86697 18.504 8.90139L25.978 10.0236C26.5554 10.1103 26.7859 10.8435 26.3681 11.2643L20.9599 16.7118C20.7939 16.8789 20.7182 17.1197 20.7574 17.3557L22.0341 25.0477C22.1328 25.6419 21.5292 26.095 21.0128 25.8144L14.3278 22.1828C14.1227 22.0714 13.8777 22.0714 13.6727 22.1828L6.98764 25.8144C6.47123 26.095 5.86767 25.6419 5.9663 25.0477L7.24302 17.3557C7.28218 17.1197 7.20648 16.8789 7.04058 16.7118L1.63229 11.2643C1.2145 10.8435 1.44504 10.1103 2.02241 10.0236L9.49648 8.90139C9.72575 8.86697 9.92395 8.71817 10.0265 8.50349L13.369 1.50508Z" fill="#BDBDBE" stroke="#BDBDBE" stroke-linejoin="round"/>
</svg>
