<svg width="24" height="24" viewBox="0 0 24 24" fill="none" xmlns="http://www.w3.org/2000/svg">
<path d="M21.8661 11.5017C21.2263 10.3921 17.7077 4.82434 11.7301 5.00426C6.2023 5.14421 3.00358 10.0023 2.13392 11.5017C2.04619 11.6536 2 11.826 2 12.0015C2 12.177 2.04619 12.3493 2.13392 12.5013C2.76367 13.5909 6.13233 18.9987 12.02 18.9987H12.2699C17.7977 18.8588 21.0064 14.0007 21.8661 12.5013C21.9538 12.3493 22 12.177 22 12.0015C22 11.826 21.9538 11.6536 21.8661 11.5017ZM12 15.5001C11.308 15.5001 10.6316 15.2949 10.0563 14.9105C9.48093 14.526 9.03251 13.9796 8.76771 13.3403C8.5029 12.7011 8.43362 11.9976 8.56861 11.3189C8.70361 10.6403 9.03682 10.0169 9.52611 9.52759C10.0154 9.0383 10.6388 8.70509 11.3175 8.5701C11.9961 8.4351 12.6996 8.50439 13.3389 8.76919C13.9781 9.03399 14.5246 9.48242 14.909 10.0578C15.2934 10.6331 15.4986 11.3095 15.4986 12.0015C15.4986 12.9294 15.13 13.8193 14.4739 14.4754C13.8178 15.1315 12.9279 15.5001 12 15.5001Z" stroke="#919193" stroke-width="2"/>
</svg>
